<svg width="30" height="30" viewBox="0 0 30 30" fill="none" xmlns="http://www.w3.org/2000/svg">
<path d="M15.0009 0.000961164C6.71386 0.000961164 0 6.88972 0 15.3798C0 22.1782 4.29777 27.9405 10.2541 29.9733C11.0069 30.1185 11.2788 29.6427 11.2788 29.2313C11.2788 28.8661 11.2704 27.9001 11.2648 26.6179C7.08982 27.5444 6.21039 24.5504 6.21039 24.5504C5.52691 22.778 4.5406 22.3022 4.5406 22.3022C3.18301 21.3516 4.64842 21.3718 4.64842 21.3718C6.15226 21.4765 6.94356 22.9529 6.94356 22.9529C8.28146 25.3059 10.4538 24.6254 11.3135 24.2293C11.4448 23.2384 11.8357 22.5569 12.2614 22.1772C8.93118 21.7918 5.4294 20.4702 5.4294 14.5772C5.4294 12.8942 6.01069 11.5235 6.97169 10.447C6.80574 10.0616 6.29758 8.49488 7.10388 6.37645C7.10388 6.37645 8.35927 5.96602 11.2291 7.95374C12.4302 7.61252 13.7052 7.44239 14.9794 7.43374C16.2545 7.44239 17.5286 7.61348 18.7296 7.95374C21.5826 5.96602 22.8371 6.37645 22.8371 6.37645C23.6424 8.49488 23.1343 10.0606 22.988 10.447C23.9396 11.5235 24.5209 12.8951 24.5209 14.5772C24.5209 20.4836 21.0144 21.786 17.6805 22.1619C18.2018 22.6223 18.6902 23.569 18.6902 25.006C18.6902 27.0629 18.6715 28.72 18.6715 29.2207C18.6715 29.6206 18.934 30.1012 19.7065 29.9464C25.7069 27.9347 30 22.1676 30 15.3788C30 6.88875 23.2861 0 14.9991 0L15.0009 0.000961164Z" fill="#FEFBF6"/>
</svg>
